<svg xmlns="http://www.w3.org/2000/svg" width="773" height="154" viewBox="0 0 773 154" role="img" aria-label="321 commits in the last 12 months across 19 repositories">
<title>321 commits in the last 12 months across 19 repositories</title>
<style>
  text{font-family:-apple-system, BlinkMacSystemFont, 'Segoe UI', 'Noto Sans', Helvetica, Arial, sans-serif;fill:#1f2328}
  .mono{font-family:ui-monospace, SFMono-Regular, 'SF Mono', Menlo, Consolas, monospace}
  .muted{fill:#59636e}
</style>
<text x="34" y="20" font-size="14" class="muted">Oct</text><text x="90" y="20" font-size="14" class="muted">Nov</text><text x="160" y="20" font-size="14" class="muted">Dec</text><text x="216" y="20" font-size="14" class="muted">Jan</text><text x="272" y="20" font-size="14" class="muted">Feb</text><text x="328" y="20" font-size="14" class="muted">Mar</text><text x="398" y="20" font-size="14" class="muted">Apr</text><text x="454" y="20" font-size="14" class="muted">May</text><text x="524" y="20" font-size="14" class="muted">Jun</text><text x="580" y="20" font-size="14" class="muted">Jul</text><text x="636" y="20" font-size="14" class="muted">Aug</text><text x="706" y="20" font-size="14" class="muted">Sep</text><text x="0" y="54" font-size="13" class="muted">Mon</text><text x="0" y="82" font-size="13" class="muted">Wed</text><text x="0" y="110" font-size="13" class="muted">Fri</text><rect x="34" y="30" width="11" height="11" rx="2.5" fill="#e6ebf0"><title>2025-10-05: 0 commits</title></rect><rect x="34" y="44" width="11" height="11" rx="2.5" fill="#e6ebf0"><title>2025-10-06: 0 commits</title></rect><rect x="34" y="58" width="11" height="11" rx="2.5" fill="#e6ebf0"><title>2025-10-07: 0 commits</title></rect><rect x="34" y="72" width="11" height="11" rx="2.5" fill="#e6ebf0"><title>2025-10-08: 0 commits</title></rect><rect x="34" y="86" width="11" height="11" rx="2.5" fill="#e6ebf0"><title>2025-10-09: 0 commits</title></rect><rect x="34" y="100" width="11" height="11" rx="2.5" fill="#e6ebf0"><title>2025-10-10: 0 commits</title></rect><rect x="34" y="114" width="11" height="11" rx="2.5" fill="#e6ebf0"><title>2025-10-11: 0 commits</title></rect><rect x="48" y="30" width="11" height="11" rx="2.5" fill="#e6ebf0"><title>2025-10-12: 0 commits</title></rect><rect x="48" y="44" width="11" height="11" rx="2.5" fill="#e6ebf0"><title>2025-10-13: 0 commits</title></rect><rect x="48" y="58" width="11" height="11" rx="2.5" fill="#e6ebf0"><title>2025-10-14: 0 commits</title></rect><rect x="48" y="72" width="11" height="11" rx="2.5" fill="#e6ebf0"><title>2025-10-15: 0 commits</title></rect><rect x="48" y="86" width="11" height="11" rx="2.5" fill="#e6ebf0"><title>2025-10-16: 0 commits</title></rect><rect x="48" y="100" width="11" height="11" rx="2.5" fill="#e6ebf0"><title>2025-10-17: 0 commits</title></rect><rect x="48" y="114" width="11" height="11" rx="2.5" fill="#e6ebf0"><title>2025-10-18: 0 commits</title></rect><rect x="62" y="30" width="11" height="11" rx="2.5" fill="#e6ebf0"><title>2025-10-19: 0 commits</title></rect><rect x="62" y="44" width="11" height="11" rx="2.5" fill="#e6ebf0"><title>2025-10-20: 0 commits</title></rect><rect x="62" y="58" width="11" height="11" rx="2.5" fill="#e6ebf0"><title>2025-10-21: 0 commits</title></rect><rect x="62" y="72" width="11" height="11" rx="2.5" fill="#e6ebf0"><title>2025-10-22: 0 commits</title></rect><rect x="62" y="86" width="11" height="11" rx="2.5" fill="#e6ebf0"><title>2025-10-23: 0 commits</title></rect><rect x="62" y="100" width="11" height="11" rx="2.5" fill="#e6ebf0"><title>2025-10-24: 0 commits</title></rect><rect x="62" y="114" width="11" height="11" rx="2.5" fill="#e6ebf0"><title>2025-10-25: 0 commits</title></rect><rect x="76" y="30" width="11" height="11" rx="2.5" fill="#e6ebf0"><title>2025-10-26: 0 commits</title></rect><rect x="76" y="44" width="11" height="11" rx="2.5" fill="#e6ebf0"><title>2025-10-27: 0 commits</title></rect><rect x="76" y="58" width="11" height="11" rx="2.5" fill="#e6ebf0"><title>2025-10-28: 0 commits</title></rect><rect x="76" y="72" width="11" height="11" rx="2.5" fill="#e6ebf0"><title>2025-10-29: 0 commits</title></rect><rect x="76" y="86" width="11" height="11" rx="2.5" fill="#e6ebf0"><title>2025-10-30: 0 commits</title></rect><rect x="76" y="100" width="11" height="11" rx="2.5" fill="#e6ebf0"><title>2025-10-31: 0 commits</title></rect><rect x="76" y="114" width="11" height="11" rx="2.5" fill="#e6ebf0"><title>2025-11-01: 0 commits</title></rect><rect x="90" y="30" width="11" height="11" rx="2.5" fill="#e6ebf0"><title>2025-11-02: 0 commits</title></rect><rect x="90" y="44" width="11" height="11" rx="2.5" fill="#e6ebf0"><title>2025-11-03: 0 commits</title></rect><rect x="90" y="58" width="11" height="11" rx="2.5" fill="#e6ebf0"><title>2025-11-04: 0 commits</title></rect><rect x="90" y="72" width="11" height="11" rx="2.5" fill="#e6ebf0"><title>2025-11-05: 0 commits</title></rect><rect x="90" y="86" width="11" height="11" rx="2.5" fill="#e6ebf0"><title>2025-11-06: 0 commits</title></rect><rect x="90" y="100" width="11" height="11" rx="2.5" fill="#e6ebf0"><title>2025-11-07: 0 commits</title></rect><rect x="90" y="114" width="11" height="11" rx="2.5" fill="#e6ebf0"><title>2025-11-08: 0 commits</title></rect><rect x="104" y="30" width="11" height="11" rx="2.5" fill="#e6ebf0"><title>2025-11-09: 0 commits</title></rect><rect x="104" y="44" width="11" height="11" rx="2.5" fill="#e6ebf0"><title>2025-11-10: 0 commits</title></rect><rect x="104" y="58" width="11" height="11" rx="2.5" fill="#e6ebf0"><title>2025-11-11: 0 commits</title></rect><rect x="104" y="72" width="11" height="11" rx="2.5" fill="#e6ebf0"><title>2025-11-12: 0 commits</title></rect><rect x="104" y="86" width="11" height="11" rx="2.5" fill="#e6ebf0"><title>2025-11-13: 0 commits</title></rect><rect x="104" y="100" width="11" height="11" rx="2.5" fill="#e6ebf0"><title>2025-11-14: 0 commits</title></rect><rect x="104" y="114" width="11" height="11" rx="2.5" fill="#e6ebf0"><title>2025-11-15: 0 commits</title></rect><rect x="118" y="30" width="11" height="11" rx="2.5" fill="#e6ebf0"><title>2025-11-16: 0 commits</title></rect><rect x="118" y="44" width="11" height="11" rx="2.5" fill="#e6ebf0"><title>2025-11-17: 0 commits</title></rect><rect x="118" y="58" width="11" height="11" rx="2.5" fill="#e6ebf0"><title>2025-11-18: 0 commits</title></rect><rect x="118" y="72" width="11" height="11" rx="2.5" fill="#e6ebf0"><title>2025-11-19: 0 commits</title></rect><rect x="118" y="86" width="11" height="11" rx="2.5" fill="#e6ebf0"><title>2025-11-20: 0 commits</title></rect><rect x="118" y="100" width="11" height="11" rx="2.5" fill="#e6ebf0"><title>2025-11-21: 0 commits</title></rect><rect x="118" y="114" width="11" height="11" rx="2.5" fill="#e6ebf0"><title>2025-11-22: 0 commits</title></rect><rect x="132" y="30" width="11" height="11" rx="2.5" fill="#e6ebf0"><title>2025-11-23: 0 commits</title></rect><rect x="132" y="44" width="11" height="11" rx="2.5" fill="#e6ebf0"><title>2025-11-24: 0 commits</title></rect><rect x="132" y="58" width="11" height="11" rx="2.5" fill="#e6ebf0"><title>2025-11-25: 0 commits</title></rect><rect x="132" y="72" width="11" height="11" rx="2.5" fill="#e6ebf0"><title>2025-11-26: 0 commits</title></rect><rect x="132" y="86" width="11" height="11" rx="2.5" fill="#e6ebf0"><title>2025-11-27: 0 commits</title></rect><rect x="132" y="100" width="11" height="11" rx="2.5" fill="#e6ebf0"><title>2025-11-28: 0 commits</title></rect><rect x="132" y="114" width="11" height="11" rx="2.5" fill="#e6ebf0"><title>2025-11-29: 0 commits</title></rect><rect x="146" y="30" width="11" height="11" rx="2.5" fill="#e6ebf0"><title>2025-11-30: 0 commits</title></rect><rect x="146" y="44" width="11" height="11" rx="2.5" fill="#e6ebf0"><title>2025-12-01: 0 commits</title></rect><rect x="146" y="58" width="11" height="11" rx="2.5" fill="#4ac26b"><title>2025-12-02: 5 commits</title></rect><rect x="146" y="72" width="11" height="11" rx="2.5" fill="#e6ebf0"><title>2025-12-03: 0 commits</title></rect><rect x="146" y="86" width="11" height="11" rx="2.5" fill="#e6ebf0"><title>2025-12-04: 0 commits</title></rect><rect x="146" y="100" width="11" height="11" rx="2.5" fill="#e6ebf0"><title>2025-12-05: 0 commits</title></rect><rect x="146" y="114" width="11" height="11" rx="2.5" fill="#e6ebf0"><title>2025-12-06: 0 commits</title></rect><rect x="160" y="30" width="11" height="11" rx="2.5" fill="#e6ebf0"><title>2025-12-07: 0 commits</title></rect><rect x="160" y="44" width="11" height="11" rx="2.5" fill="#e6ebf0"><title>2025-12-08: 0 commits</title></rect><rect x="160" y="58" width="11" height="11" rx="2.5" fill="#e6ebf0"><title>2025-12-09: 0 commits</title></rect><rect x="160" y="72" width="11" height="11" rx="2.5" fill="#e6ebf0"><title>2025-12-10: 0 commits</title></rect><rect x="160" y="86" width="11" height="11" rx="2.5" fill="#e6ebf0"><title>2025-12-11: 0 commits</title></rect><rect x="160" y="100" width="11" height="11" rx="2.5" fill="#e6ebf0"><title>2025-12-12: 0 commits</title></rect><rect x="160" y="114" width="11" height="11" rx="2.5" fill="#e6ebf0"><title>2025-12-13: 0 commits</title></rect><rect x="174" y="30" width="11" height="11" rx="2.5" fill="#e6ebf0"><title>2025-12-14: 0 commits</title></rect><rect x="174" y="44" width="11" height="11" rx="2.5" fill="#e6ebf0"><title>2025-12-15: 0 commits</title></rect><rect x="174" y="58" width="11" height="11" rx="2.5" fill="#e6ebf0"><title>2025-12-16: 0 commits</title></rect><rect x="174" y="72" width="11" height="11" rx="2.5" fill="#e6ebf0"><title>2025-12-17: 0 commits</title></rect><rect x="174" y="86" width="11" height="11" rx="2.5" fill="#e6ebf0"><title>2025-12-18: 0 commits</title></rect><rect x="174" y="100" width="11" height="11" rx="2.5" fill="#e6ebf0"><title>2025-12-19: 0 commits</title></rect><rect x="174" y="114" width="11" height="11" rx="2.5" fill="#e6ebf0"><title>2025-12-20: 0 commits</title></rect><rect x="188" y="30" width="11" height="11" rx="2.5" fill="#e6ebf0"><title>2025-12-21: 0 commits</title></rect><rect x="188" y="44" width="11" height="11" rx="2.5" fill="#e6ebf0"><title>2025-12-22: 0 commits</title></rect><rect x="188" y="58" width="11" height="11" rx="2.5" fill="#e6ebf0"><title>2025-12-23: 0 commits</title></rect><rect x="188" y="72" width="11" height="11" rx="2.5" fill="#e6ebf0"><title>2025-12-24: 0 commits</title></rect><rect x="188" y="86" width="11" height="11" rx="2.5" fill="#e6ebf0"><title>2025-12-25: 0 commits</title></rect><rect x="188" y="100" width="11" height="11" rx="2.5" fill="#e6ebf0"><title>2025-12-26: 0 commits</title></rect><rect x="188" y="114" width="11" height="11" rx="2.5" fill="#e6ebf0"><title>2025-12-27: 0 commits</title></rect><rect x="202" y="30" width="11" height="11" rx="2.5" fill="#e6ebf0"><title>2025-12-28: 0 commits</title></rect><rect x="202" y="44" width="11" height="11" rx="2.5" fill="#e6ebf0"><title>2025-12-29: 0 commits</title></rect><rect x="202" y="58" width="11" height="11" rx="2.5" fill="#e6ebf0"><title>2025-12-30: 0 commits</title></rect><rect x="202" y="72" width="11" height="11" rx="2.5" fill="#e6ebf0"><title>2025-12-31: 0 commits</title></rect><rect x="202" y="86" width="11" height="11" rx="2.5" fill="#e6ebf0"><title>2026-01-01: 0 commits</title></rect><rect x="202" y="100" width="11" height="11" rx="2.5" fill="#e6ebf0"><title>2026-01-02: 0 commits</title></rect><rect x="202" y="114" width="11" height="11" rx="2.5" fill="#e6ebf0"><title>2026-01-03: 0 commits</title></rect><rect x="216" y="30" width="11" height="11" rx="2.5" fill="#e6ebf0"><title>2026-01-04: 0 commits</title></rect><rect x="216" y="44" width="11" height="11" rx="2.5" fill="#e6ebf0"><title>2026-01-05: 0 commits</title></rect><rect x="216" y="58" width="11" height="11" rx="2.5" fill="#e6ebf0"><title>2026-01-06: 0 commits</title></rect><rect x="216" y="72" width="11" height="11" rx="2.5" fill="#e6ebf0"><title>2026-01-07: 0 commits</title></rect><rect x="216" y="86" width="11" height="11" rx="2.5" fill="#e6ebf0"><title>2026-01-08: 0 commits</title></rect><rect x="216" y="100" width="11" height="11" rx="2.5" fill="#e6ebf0"><title>2026-01-09: 0 commits</title></rect><rect x="216" y="114" width="11" height="11" rx="2.5" fill="#e6ebf0"><title>2026-01-10: 0 commits</title></rect><rect x="230" y="30" width="11" height="11" rx="2.5" fill="#e6ebf0"><title>2026-01-11: 0 commits</title></rect><rect x="230" y="44" width="11" height="11" rx="2.5" fill="#e6ebf0"><title>2026-01-12: 0 commits</title></rect><rect x="230" y="58" width="11" height="11" rx="2.5" fill="#e6ebf0"><title>2026-01-13: 0 commits</title></rect><rect x="230" y="72" width="11" height="11" rx="2.5" fill="#e6ebf0"><title>2026-01-14: 0 commits</title></rect><rect x="230" y="86" width="11" height="11" rx="2.5" fill="#e6ebf0"><title>2026-01-15: 0 commits</title></rect><rect x="230" y="100" width="11" height="11" rx="2.5" fill="#aceebb"><title>2026-01-16: 2 commits</title></rect><rect x="230" y="114" width="11" height="11" rx="2.5" fill="#e6ebf0"><title>2026-01-17: 0 commits</title></rect><rect x="244" y="30" width="11" height="11" rx="2.5" fill="#aceebb"><title>2026-01-18: 2 commits</title></rect><rect x="244" y="44" width="11" height="11" rx="2.5" fill="#4ac26b"><title>2026-01-19: 5 commits</title></rect><rect x="244" y="58" width="11" height="11" rx="2.5" fill="#aceebb"><title>2026-01-20: 1 commit</title></rect><rect x="244" y="72" width="11" height="11" rx="2.5" fill="#e6ebf0"><title>2026-01-21: 0 commits</title></rect><rect x="244" y="86" width="11" height="11" rx="2.5" fill="#e6ebf0"><title>2026-01-22: 0 commits</title></rect><rect x="244" y="100" width="11" height="11" rx="2.5" fill="#e6ebf0"><title>2026-01-23: 0 commits</title></rect><rect x="244" y="114" width="11" height="11" rx="2.5" fill="#e6ebf0"><title>2026-01-24: 0 commits</title></rect><rect x="258" y="30" width="11" height="11" rx="2.5" fill="#e6ebf0"><title>2026-01-25: 0 commits</title></rect><rect x="258" y="44" width="11" height="11" rx="2.5" fill="#e6ebf0"><title>2026-01-26: 0 commits</title></rect><rect x="258" y="58" width="11" height="11" rx="2.5" fill="#e6ebf0"><title>2026-01-27: 0 commits</title></rect><rect x="258" y="72" width="11" height="11" rx="2.5" fill="#e6ebf0"><title>2026-01-28: 0 commits</title></rect><rect x="258" y="86" width="11" height="11" rx="2.5" fill="#e6ebf0"><title>2026-01-29: 0 commits</title></rect><rect x="258" y="100" width="11" height="11" rx="2.5" fill="#e6ebf0"><title>2026-01-30: 0 commits</title></rect><rect x="258" y="114" width="11" height="11" rx="2.5" fill="#e6ebf0"><title>2026-01-31: 0 commits</title></rect><rect x="272" y="30" width="11" height="11" rx="2.5" fill="#e6ebf0"><title>2026-02-01: 0 commits</title></rect><rect x="272" y="44" width="11" height="11" rx="2.5" fill="#e6ebf0"><title>2026-02-02: 0 commits</title></rect><rect x="272" y="58" width="11" height="11" rx="2.5" fill="#e6ebf0"><title>2026-02-03: 0 commits</title></rect><rect x="272" y="72" width="11" height="11" rx="2.5" fill="#e6ebf0"><title>2026-02-04: 0 commits</title></rect><rect x="272" y="86" width="11" height="11" rx="2.5" fill="#e6ebf0"><title>2026-02-05: 0 commits</title></rect><rect x="272" y="100" width="11" height="11" rx="2.5" fill="#e6ebf0"><title>2026-02-06: 0 commits</title></rect><rect x="272" y="114" width="11" height="11" rx="2.5" fill="#e6ebf0"><title>2026-02-07: 0 commits</title></rect><rect x="286" y="30" width="11" height="11" rx="2.5" fill="#e6ebf0"><title>2026-02-08: 0 commits</title></rect><rect x="286" y="44" width="11" height="11" rx="2.5" fill="#e6ebf0"><title>2026-02-09: 0 commits</title></rect><rect x="286" y="58" width="11" height="11" rx="2.5" fill="#e6ebf0"><title>2026-02-10: 0 commits</title></rect><rect x="286" y="72" width="11" height="11" rx="2.5" fill="#e6ebf0"><title>2026-02-11: 0 commits</title></rect><rect x="286" y="86" width="11" height="11" rx="2.5" fill="#e6ebf0"><title>2026-02-12: 0 commits</title></rect><rect x="286" y="100" width="11" height="11" rx="2.5" fill="#e6ebf0"><title>2026-02-13: 0 commits</title></rect><rect x="286" y="114" width="11" height="11" rx="2.5" fill="#e6ebf0"><title>2026-02-14: 0 commits</title></rect><rect x="300" y="30" width="11" height="11" rx="2.5" fill="#aceebb"><title>2026-02-15: 2 commits</title></rect><rect x="300" y="44" width="11" height="11" rx="2.5" fill="#2da44e"><title>2026-02-16: 7 commits</title></rect><rect x="300" y="58" width="11" height="11" rx="2.5" fill="#e6ebf0"><title>2026-02-17: 0 commits</title></rect><rect x="300" y="72" width="11" height="11" rx="2.5" fill="#e6ebf0"><title>2026-02-18: 0 commits</title></rect><rect x="300" y="86" width="11" height="11" rx="2.5" fill="#e6ebf0"><title>2026-02-19: 0 commits</title></rect><rect x="300" y="100" width="11" height="11" rx="2.5" fill="#e6ebf0"><title>2026-02-20: 0 commits</title></rect><rect x="300" y="114" width="11" height="11" rx="2.5" fill="#e6ebf0"><title>2026-02-21: 0 commits</title></rect><rect x="314" y="30" width="11" height="11" rx="2.5" fill="#aceebb"><title>2026-02-22: 2 commits</title></rect><rect x="314" y="44" width="11" height="11" rx="2.5" fill="#4ac26b"><title>2026-02-23: 5 commits</title></rect><rect x="314" y="58" width="11" height="11" rx="2.5" fill="#2da44e"><title>2026-02-24: 6 commits</title></rect><rect x="314" y="72" width="11" height="11" rx="2.5" fill="#116329"><title>2026-02-25: 10 commits</title></rect><rect x="314" y="86" width="11" height="11" rx="2.5" fill="#4ac26b"><title>2026-02-26: 5 commits</title></rect><rect x="314" y="100" width="11" height="11" rx="2.5" fill="#aceebb"><title>2026-02-27: 1 commit</title></rect><rect x="314" y="114" width="11" height="11" rx="2.5" fill="#2da44e"><title>2026-02-28: 8 commits</title></rect><rect x="328" y="30" width="11" height="11" rx="2.5" fill="#4ac26b"><title>2026-03-01: 5 commits</title></rect><rect x="328" y="44" width="11" height="11" rx="2.5" fill="#4ac26b"><title>2026-03-02: 4 commits</title></rect><rect x="328" y="58" width="11" height="11" rx="2.5" fill="#4ac26b"><title>2026-03-03: 4 commits</title></rect><rect x="328" y="72" width="11" height="11" rx="2.5" fill="#aceebb"><title>2026-03-04: 2 commits</title></rect><rect x="328" y="86" width="11" height="11" rx="2.5" fill="#4ac26b"><title>2026-03-05: 4 commits</title></rect><rect x="328" y="100" width="11" height="11" rx="2.5" fill="#4ac26b"><title>2026-03-06: 3 commits</title></rect><rect x="328" y="114" width="11" height="11" rx="2.5" fill="#4ac26b"><title>2026-03-07: 5 commits</title></rect><rect x="342" y="30" width="11" height="11" rx="2.5" fill="#4ac26b"><title>2026-03-08: 4 commits</title></rect><rect x="342" y="44" width="11" height="11" rx="2.5" fill="#aceebb"><title>2026-03-09: 1 commit</title></rect><rect x="342" y="58" width="11" height="11" rx="2.5" fill="#e6ebf0"><title>2026-03-10: 0 commits</title></rect><rect x="342" y="72" width="11" height="11" rx="2.5" fill="#e6ebf0"><title>2026-03-11: 0 commits</title></rect><rect x="342" y="86" width="11" height="11" rx="2.5" fill="#aceebb"><title>2026-03-12: 1 commit</title></rect><rect x="342" y="100" width="11" height="11" rx="2.5" fill="#e6ebf0"><title>2026-03-13: 0 commits</title></rect><rect x="342" y="114" width="11" height="11" rx="2.5" fill="#e6ebf0"><title>2026-03-14: 0 commits</title></rect><rect x="356" y="30" width="11" height="11" rx="2.5" fill="#e6ebf0"><title>2026-03-15: 0 commits</title></rect><rect x="356" y="44" width="11" height="11" rx="2.5" fill="#e6ebf0"><title>2026-03-16: 0 commits</title></rect><rect x="356" y="58" width="11" height="11" rx="2.5" fill="#aceebb"><title>2026-03-17: 1 commit</title></rect><rect x="356" y="72" width="11" height="11" rx="2.5" fill="#aceebb"><title>2026-03-18: 1 commit</title></rect><rect x="356" y="86" width="11" height="11" rx="2.5" fill="#aceebb"><title>2026-03-19: 1 commit</title></rect><rect x="356" y="100" width="11" height="11" rx="2.5" fill="#e6ebf0"><title>2026-03-20: 0 commits</title></rect><rect x="356" y="114" width="11" height="11" rx="2.5" fill="#e6ebf0"><title>2026-03-21: 0 commits</title></rect><rect x="370" y="30" width="11" height="11" rx="2.5" fill="#e6ebf0"><title>2026-03-22: 0 commits</title></rect><rect x="370" y="44" width="11" height="11" rx="2.5" fill="#e6ebf0"><title>2026-03-23: 0 commits</title></rect><rect x="370" y="58" width="11" height="11" rx="2.5" fill="#e6ebf0"><title>2026-03-24: 0 commits</title></rect><rect x="370" y="72" width="11" height="11" rx="2.5" fill="#e6ebf0"><title>2026-03-25: 0 commits</title></rect><rect x="370" y="86" width="11" height="11" rx="2.5" fill="#e6ebf0"><title>2026-03-26: 0 commits</title></rect><rect x="370" y="100" width="11" height="11" rx="2.5" fill="#aceebb"><title>2026-03-27: 1 commit</title></rect><rect x="370" y="114" width="11" height="11" rx="2.5" fill="#e6ebf0"><title>2026-03-28: 0 commits</title></rect><rect x="384" y="30" width="11" height="11" rx="2.5" fill="#e6ebf0"><title>2026-03-29: 0 commits</title></rect><rect x="384" y="44" width="11" height="11" rx="2.5" fill="#e6ebf0"><title>2026-03-30: 0 commits</title></rect><rect x="384" y="58" width="11" height="11" rx="2.5" fill="#e6ebf0"><title>2026-03-31: 0 commits</title></rect><rect x="384" y="72" width="11" height="11" rx="2.5" fill="#e6ebf0"><title>2026-04-01: 0 commits</title></rect><rect x="384" y="86" width="11" height="11" rx="2.5" fill="#e6ebf0"><title>2026-04-02: 0 commits</title></rect><rect x="384" y="100" width="11" height="11" rx="2.5" fill="#e6ebf0"><title>2026-04-03: 0 commits</title></rect><rect x="384" y="114" width="11" height="11" rx="2.5" fill="#aceebb"><title>2026-04-04: 2 commits</title></rect><rect x="398" y="30" width="11" height="11" rx="2.5" fill="#aceebb"><title>2026-04-05: 1 commit</title></rect><rect x="398" y="44" width="11" height="11" rx="2.5" fill="#e6ebf0"><title>2026-04-06: 0 commits</title></rect><rect x="398" y="58" width="11" height="11" rx="2.5" fill="#e6ebf0"><title>2026-04-07: 0 commits</title></rect><rect x="398" y="72" width="11" height="11" rx="2.5" fill="#e6ebf0"><title>2026-04-08: 0 commits</title></rect><rect x="398" y="86" width="11" height="11" rx="2.5" fill="#e6ebf0"><title>2026-04-09: 0 commits</title></rect><rect x="398" y="100" width="11" height="11" rx="2.5" fill="#e6ebf0"><title>2026-04-10: 0 commits</title></rect><rect x="398" y="114" width="11" height="11" rx="2.5" fill="#e6ebf0"><title>2026-04-11: 0 commits</title></rect><rect x="412" y="30" width="11" height="11" rx="2.5" fill="#e6ebf0"><title>2026-04-12: 0 commits</title></rect><rect x="412" y="44" width="11" height="11" rx="2.5" fill="#e6ebf0"><title>2026-04-13: 0 commits</title></rect><rect x="412" y="58" width="11" height="11" rx="2.5" fill="#e6ebf0"><title>2026-04-14: 0 commits</title></rect><rect x="412" y="72" width="11" height="11" rx="2.5" fill="#e6ebf0"><title>2026-04-15: 0 commits</title></rect><rect x="412" y="86" width="11" height="11" rx="2.5" fill="#e6ebf0"><title>2026-04-16: 0 commits</title></rect><rect x="412" y="100" width="11" height="11" rx="2.5" fill="#2da44e"><title>2026-04-17: 7 commits</title></rect><rect x="412" y="114" width="11" height="11" rx="2.5" fill="#aceebb"><title>2026-04-18: 1 commit</title></rect><rect x="426" y="30" width="11" height="11" rx="2.5" fill="#aceebb"><title>2026-04-19: 2 commits</title></rect><rect x="426" y="44" width="11" height="11" rx="2.5" fill="#aceebb"><title>2026-04-20: 1 commit</title></rect><rect x="426" y="58" width="11" height="11" rx="2.5" fill="#aceebb"><title>2026-04-21: 2 commits</title></rect><rect x="426" y="72" width="11" height="11" rx="2.5" fill="#aceebb"><title>2026-04-22: 1 commit</title></rect><rect x="426" y="86" width="11" height="11" rx="2.5" fill="#e6ebf0"><title>2026-04-23: 0 commits</title></rect><rect x="426" y="100" width="11" height="11" rx="2.5" fill="#e6ebf0"><title>2026-04-24: 0 commits</title></rect><rect x="426" y="114" width="11" height="11" rx="2.5" fill="#aceebb"><title>2026-04-25: 1 commit</title></rect><rect x="440" y="30" width="11" height="11" rx="2.5" fill="#e6ebf0"><title>2026-04-26: 0 commits</title></rect><rect x="440" y="44" width="11" height="11" rx="2.5" fill="#e6ebf0"><title>2026-04-27: 0 commits</title></rect><rect x="440" y="58" width="11" height="11" rx="2.5" fill="#e6ebf0"><title>2026-04-28: 0 commits</title></rect><rect x="440" y="72" width="11" height="11" rx="2.5" fill="#e6ebf0"><title>2026-04-29: 0 commits</title></rect><rect x="440" y="86" width="11" height="11" rx="2.5" fill="#e6ebf0"><title>2026-04-30: 0 commits</title></rect><rect x="440" y="100" width="11" height="11" rx="2.5" fill="#e6ebf0"><title>2026-05-01: 0 commits</title></rect><rect x="440" y="114" width="11" height="11" rx="2.5" fill="#e6ebf0"><title>2026-05-02: 0 commits</title></rect><rect x="454" y="30" width="11" height="11" rx="2.5" fill="#e6ebf0"><title>2026-05-03: 0 commits</title></rect><rect x="454" y="44" width="11" height="11" rx="2.5" fill="#e6ebf0"><title>2026-05-04: 0 commits</title></rect><rect x="454" y="58" width="11" height="11" rx="2.5" fill="#e6ebf0"><title>2026-05-05: 0 commits</title></rect><rect x="454" y="72" width="11" height="11" rx="2.5" fill="#e6ebf0"><title>2026-05-06: 0 commits</title></rect><rect x="454" y="86" width="11" height="11" rx="2.5" fill="#4ac26b"><title>2026-05-07: 4 commits</title></rect><rect x="454" y="100" width="11" height="11" rx="2.5" fill="#e6ebf0"><title>2026-05-08: 0 commits</title></rect><rect x="454" y="114" width="11" height="11" rx="2.5" fill="#e6ebf0"><title>2026-05-09: 0 commits</title></rect><rect x="468" y="30" width="11" height="11" rx="2.5" fill="#aceebb"><title>2026-05-10: 1 commit</title></rect><rect x="468" y="44" width="11" height="11" rx="2.5" fill="#aceebb"><title>2026-05-11: 2 commits</title></rect><rect x="468" y="58" width="11" height="11" rx="2.5" fill="#aceebb"><title>2026-05-12: 1 commit</title></rect><rect x="468" y="72" width="11" height="11" rx="2.5" fill="#e6ebf0"><title>2026-05-13: 0 commits</title></rect><rect x="468" y="86" width="11" height="11" rx="2.5" fill="#e6ebf0"><title>2026-05-14: 0 commits</title></rect><rect x="468" y="100" width="11" height="11" rx="2.5" fill="#e6ebf0"><title>2026-05-15: 0 commits</title></rect><rect x="468" y="114" width="11" height="11" rx="2.5" fill="#e6ebf0"><title>2026-05-16: 0 commits</title></rect><rect x="482" y="30" width="11" height="11" rx="2.5" fill="#aceebb"><title>2026-05-17: 1 commit</title></rect><rect x="482" y="44" width="11" height="11" rx="2.5" fill="#e6ebf0"><title>2026-05-18: 0 commits</title></rect><rect x="482" y="58" width="11" height="11" rx="2.5" fill="#e6ebf0"><title>2026-05-19: 0 commits</title></rect><rect x="482" y="72" width="11" height="11" rx="2.5" fill="#e6ebf0"><title>2026-05-20: 0 commits</title></rect><rect x="482" y="86" width="11" height="11" rx="2.5" fill="#e6ebf0"><title>2026-05-21: 0 commits</title></rect><rect x="482" y="100" width="11" height="11" rx="2.5" fill="#e6ebf0"><title>2026-05-22: 0 commits</title></rect><rect x="482" y="114" width="11" height="11" rx="2.5" fill="#e6ebf0"><title>2026-05-23: 0 commits</title></rect><rect x="496" y="30" width="11" height="11" rx="2.5" fill="#e6ebf0"><title>2026-05-24: 0 commits</title></rect><rect x="496" y="44" width="11" height="11" rx="2.5" fill="#e6ebf0"><title>2026-05-25: 0 commits</title></rect><rect x="496" y="58" width="11" height="11" rx="2.5" fill="#e6ebf0"><title>2026-05-26: 0 commits</title></rect><rect x="496" y="72" width="11" height="11" rx="2.5" fill="#e6ebf0"><title>2026-05-27: 0 commits</title></rect><rect x="496" y="86" width="11" height="11" rx="2.5" fill="#e6ebf0"><title>2026-05-28: 0 commits</title></rect><rect x="496" y="100" width="11" height="11" rx="2.5" fill="#e6ebf0"><title>2026-05-29: 0 commits</title></rect><rect x="496" y="114" width="11" height="11" rx="2.5" fill="#e6ebf0"><title>2026-05-30: 0 commits</title></rect><rect x="510" y="30" width="11" height="11" rx="2.5" fill="#e6ebf0"><title>2026-05-31: 0 commits</title></rect><rect x="510" y="44" width="11" height="11" rx="2.5" fill="#e6ebf0"><title>2026-06-01: 0 commits</title></rect><rect x="510" y="58" width="11" height="11" rx="2.5" fill="#aceebb"><title>2026-06-02: 2 commits</title></rect><rect x="510" y="72" width="11" height="11" rx="2.5" fill="#e6ebf0"><title>2026-06-03: 0 commits</title></rect><rect x="510" y="86" width="11" height="11" rx="2.5" fill="#aceebb"><title>2026-06-04: 1 commit</title></rect><rect x="510" y="100" width="11" height="11" rx="2.5" fill="#e6ebf0"><title>2026-06-05: 0 commits</title></rect><rect x="510" y="114" width="11" height="11" rx="2.5" fill="#116329"><title>2026-06-06: 18 commits</title></rect><rect x="524" y="30" width="11" height="11" rx="2.5" fill="#aceebb"><title>2026-06-07: 1 commit</title></rect><rect x="524" y="44" width="11" height="11" rx="2.5" fill="#e6ebf0"><title>2026-06-08: 0 commits</title></rect><rect x="524" y="58" width="11" height="11" rx="2.5" fill="#e6ebf0"><title>2026-06-09: 0 commits</title></rect><rect x="524" y="72" width="11" height="11" rx="2.5" fill="#e6ebf0"><title>2026-06-10: 0 commits</title></rect><rect x="524" y="86" width="11" height="11" rx="2.5" fill="#e6ebf0"><title>2026-06-11: 0 commits</title></rect><rect x="524" y="100" width="11" height="11" rx="2.5" fill="#e6ebf0"><title>2026-06-12: 0 commits</title></rect><rect x="524" y="114" width="11" height="11" rx="2.5" fill="#e6ebf0"><title>2026-06-13: 0 commits</title></rect><rect x="538" y="30" width="11" height="11" rx="2.5" fill="#e6ebf0"><title>2026-06-14: 0 commits</title></rect><rect x="538" y="44" width="11" height="11" rx="2.5" fill="#e6ebf0"><title>2026-06-15: 0 commits</title></rect><rect x="538" y="58" width="11" height="11" rx="2.5" fill="#e6ebf0"><title>2026-06-16: 0 commits</title></rect><rect x="538" y="72" width="11" height="11" rx="2.5" fill="#e6ebf0"><title>2026-06-17: 0 commits</title></rect><rect x="538" y="86" width="11" height="11" rx="2.5" fill="#e6ebf0"><title>2026-06-18: 0 commits</title></rect><rect x="538" y="100" width="11" height="11" rx="2.5" fill="#e6ebf0"><title>2026-06-19: 0 commits</title></rect><rect x="538" y="114" width="11" height="11" rx="2.5" fill="#4ac26b"><title>2026-06-20: 3 commits</title></rect><rect x="552" y="30" width="11" height="11" rx="2.5" fill="#4ac26b"><title>2026-06-21: 4 commits</title></rect><rect x="552" y="44" width="11" height="11" rx="2.5" fill="#e6ebf0"><title>2026-06-22: 0 commits</title></rect><rect x="552" y="58" width="11" height="11" rx="2.5" fill="#e6ebf0"><title>2026-06-23: 0 commits</title></rect><rect x="552" y="72" width="11" height="11" rx="2.5" fill="#e6ebf0"><title>2026-06-24: 0 commits</title></rect><rect x="552" y="86" width="11" height="11" rx="2.5" fill="#e6ebf0"><title>2026-06-25: 0 commits</title></rect><rect x="552" y="100" width="11" height="11" rx="2.5" fill="#e6ebf0"><title>2026-06-26: 0 commits</title></rect><rect x="552" y="114" width="11" height="11" rx="2.5" fill="#aceebb"><title>2026-06-27: 2 commits</title></rect><rect x="566" y="30" width="11" height="11" rx="2.5" fill="#e6ebf0"><title>2026-06-28: 0 commits</title></rect><rect x="566" y="44" width="11" height="11" rx="2.5" fill="#aceebb"><title>2026-06-29: 1 commit</title></rect><rect x="566" y="58" width="11" height="11" rx="2.5" fill="#aceebb"><title>2026-06-30: 1 commit</title></rect><rect x="566" y="72" width="11" height="11" rx="2.5" fill="#116329"><title>2026-07-01: 16 commits</title></rect><rect x="566" y="86" width="11" height="11" rx="2.5" fill="#2da44e"><title>2026-07-02: 6 commits</title></rect><rect x="566" y="100" width="11" height="11" rx="2.5" fill="#aceebb"><title>2026-07-03: 1 commit</title></rect><rect x="566" y="114" width="11" height="11" rx="2.5" fill="#4ac26b"><title>2026-07-04: 3 commits</title></rect><rect x="580" y="30" width="11" height="11" rx="2.5" fill="#e6ebf0"><title>2026-07-05: 0 commits</title></rect><rect x="580" y="44" width="11" height="11" rx="2.5" fill="#e6ebf0"><title>2026-07-06: 0 commits</title></rect><rect x="580" y="58" width="11" height="11" rx="2.5" fill="#e6ebf0"><title>2026-07-07: 0 commits</title></rect><rect x="580" y="72" width="11" height="11" rx="2.5" fill="#e6ebf0"><title>2026-07-08: 0 commits</title></rect><rect x="580" y="86" width="11" height="11" rx="2.5" fill="#e6ebf0"><title>2026-07-09: 0 commits</title></rect><rect x="580" y="100" width="11" height="11" rx="2.5" fill="#4ac26b"><title>2026-07-10: 4 commits</title></rect><rect x="580" y="114" width="11" height="11" rx="2.5" fill="#4ac26b"><title>2026-07-11: 3 commits</title></rect><rect x="594" y="30" width="11" height="11" rx="2.5" fill="#e6ebf0"><title>2026-07-12: 0 commits</title></rect><rect x="594" y="44" width="11" height="11" rx="2.5" fill="#e6ebf0"><title>2026-07-13: 0 commits</title></rect><rect x="594" y="58" width="11" height="11" rx="2.5" fill="#e6ebf0"><title>2026-07-14: 0 commits</title></rect><rect x="594" y="72" width="11" height="11" rx="2.5" fill="#e6ebf0"><title>2026-07-15: 0 commits</title></rect><rect x="594" y="86" width="11" height="11" rx="2.5" fill="#e6ebf0"><title>2026-07-16: 0 commits</title></rect><rect x="594" y="100" width="11" height="11" rx="2.5" fill="#e6ebf0"><title>2026-07-17: 0 commits</title></rect><rect x="594" y="114" width="11" height="11" rx="2.5" fill="#aceebb"><title>2026-07-18: 2 commits</title></rect><rect x="608" y="30" width="11" height="11" rx="2.5" fill="#2da44e"><title>2026-07-19: 9 commits</title></rect><rect x="608" y="44" width="11" height="11" rx="2.5" fill="#e6ebf0"><title>2026-07-20: 0 commits</title></rect><rect x="608" y="58" width="11" height="11" rx="2.5" fill="#e6ebf0"><title>2026-07-21: 0 commits</title></rect><rect x="608" y="72" width="11" height="11" rx="2.5" fill="#e6ebf0"><title>2026-07-22: 0 commits</title></rect><rect x="608" y="86" width="11" height="11" rx="2.5" fill="#e6ebf0"><title>2026-07-23: 0 commits</title></rect><rect x="608" y="100" width="11" height="11" rx="2.5" fill="#e6ebf0"><title>2026-07-24: 0 commits</title></rect><rect x="608" y="114" width="11" height="11" rx="2.5" fill="#e6ebf0"><title>2026-07-25: 0 commits</title></rect><rect x="622" y="30" width="11" height="11" rx="2.5" fill="#116329"><title>2026-07-26: 17 commits</title></rect><rect x="622" y="44" width="11" height="11" rx="2.5" fill="#4ac26b"><title>2026-07-27: 3 commits</title></rect><rect x="622" y="58" width="11" height="11" rx="2.5" fill="#e6ebf0"><title>2026-07-28: 0 commits</title></rect><rect x="622" y="72" width="11" height="11" rx="2.5" fill="#e6ebf0"><title>2026-07-29: 0 commits</title></rect><rect x="622" y="86" width="11" height="11" rx="2.5" fill="#e6ebf0"><title>2026-07-30: 0 commits</title></rect><rect x="622" y="100" width="11" height="11" rx="2.5" fill="#aceebb"><title>2026-07-31: 1 commit</title></rect><rect x="622" y="114" width="11" height="11" rx="2.5" fill="#116329"><title>2026-08-01: 15 commits</title></rect><rect x="636" y="30" width="11" height="11" rx="2.5" fill="#4ac26b"><title>2026-08-02: 4 commits</title></rect><rect x="636" y="44" width="11" height="11" rx="2.5" fill="#4ac26b"><title>2026-08-03: 5 commits</title></rect><rect x="636" y="58" width="11" height="11" rx="2.5" fill="#2da44e"><title>2026-08-04: 7 commits</title></rect><rect x="636" y="72" width="11" height="11" rx="2.5" fill="#2da44e"><title>2026-08-05: 9 commits</title></rect><rect x="636" y="86" width="11" height="11" rx="2.5" fill="#e6ebf0"><title>2026-08-06: 0 commits</title></rect><rect x="636" y="100" width="11" height="11" rx="2.5" fill="#e6ebf0"><title>2026-08-07: 0 commits</title></rect><rect x="636" y="114" width="11" height="11" rx="2.5" fill="#aceebb"><title>2026-08-08: 2 commits</title></rect><rect x="650" y="30" width="11" height="11" rx="2.5" fill="#2da44e"><title>2026-08-09: 6 commits</title></rect><rect x="650" y="44" width="11" height="11" rx="2.5" fill="#e6ebf0"><title>2026-08-10: 0 commits</title></rect><rect x="650" y="58" width="11" height="11" rx="2.5" fill="#e6ebf0"><title>2026-08-11: 0 commits</title></rect><rect x="650" y="72" width="11" height="11" rx="2.5" fill="#e6ebf0"><title>2026-08-12: 0 commits</title></rect><rect x="650" y="86" width="11" height="11" rx="2.5" fill="#e6ebf0"><title>2026-08-13: 0 commits</title></rect><rect x="650" y="100" width="11" height="11" rx="2.5" fill="#e6ebf0"><title>2026-08-14: 0 commits</title></rect><rect x="650" y="114" width="11" height="11" rx="2.5" fill="#e6ebf0"><title>2026-08-15: 0 commits</title></rect><rect x="664" y="30" width="11" height="11" rx="2.5" fill="#4ac26b"><title>2026-08-16: 3 commits</title></rect><rect x="664" y="44" width="11" height="11" rx="2.5" fill="#aceebb"><title>2026-08-17: 2 commits</title></rect><rect x="664" y="58" width="11" height="11" rx="2.5" fill="#e6ebf0"><title>2026-08-18: 0 commits</title></rect><rect x="664" y="72" width="11" height="11" rx="2.5" fill="#116329"><title>2026-08-19: 19 commits</title></rect><rect x="664" y="86" width="11" height="11" rx="2.5" fill="#aceebb"><title>2026-08-20: 1 commit</title></rect><rect x="664" y="100" width="11" height="11" rx="2.5" fill="#e6ebf0"><title>2026-08-21: 0 commits</title></rect><rect x="664" y="114" width="11" height="11" rx="2.5" fill="#e6ebf0"><title>2026-08-22: 0 commits</title></rect><rect x="678" y="30" width="11" height="11" rx="2.5" fill="#4ac26b"><title>2026-08-23: 4 commits</title></rect><rect x="678" y="44" width="11" height="11" rx="2.5" fill="#e6ebf0"><title>2026-08-24: 0 commits</title></rect><rect x="678" y="58" width="11" height="11" rx="2.5" fill="#e6ebf0"><title>2026-08-25: 0 commits</title></rect><rect x="678" y="72" width="11" height="11" rx="2.5" fill="#e6ebf0"><title>2026-08-26: 0 commits</title></rect><rect x="678" y="86" width="11" height="11" rx="2.5" fill="#aceebb"><title>2026-08-27: 1 commit</title></rect><rect x="678" y="100" width="11" height="11" rx="2.5" fill="#e6ebf0"><title>2026-08-28: 0 commits</title></rect><rect x="678" y="114" width="11" height="11" rx="2.5" fill="#116329"><title>2026-08-29: 13 commits</title></rect><rect x="692" y="30" width="11" height="11" rx="2.5" fill="#aceebb"><title>2026-08-30: 1 commit</title></rect><rect x="692" y="44" width="11" height="11" rx="2.5" fill="#e6ebf0"><title>2026-08-31: 0 commits</title></rect><rect x="692" y="58" width="11" height="11" rx="2.5" fill="#e6ebf0"><title>2026-09-01: 0 commits</title></rect><rect x="692" y="72" width="11" height="11" rx="2.5" fill="#e6ebf0"><title>2026-09-02: 0 commits</title></rect><rect x="692" y="86" width="11" height="11" rx="2.5" fill="#e6ebf0"><title>2026-09-03: 0 commits</title></rect><rect x="692" y="100" width="11" height="11" rx="2.5" fill="#e6ebf0"><title>2026-09-04: 0 commits</title></rect><rect x="692" y="114" width="11" height="11" rx="2.5" fill="#aceebb"><title>2026-09-05: 1 commit</title></rect><rect x="706" y="30" width="11" height="11" rx="2.5" fill="#e6ebf0"><title>2026-09-06: 0 commits</title></rect><rect x="706" y="44" width="11" height="11" rx="2.5" fill="#e6ebf0"><title>2026-09-07: 0 commits</title></rect><rect x="706" y="58" width="11" height="11" rx="2.5" fill="#e6ebf0"><title>2026-09-08: 0 commits</title></rect><rect x="706" y="72" width="11" height="11" rx="2.5" fill="#e6ebf0"><title>2026-09-09: 0 commits</title></rect><rect x="706" y="86" width="11" height="11" rx="2.5" fill="#e6ebf0"><title>2026-09-10: 0 commits</title></rect><rect x="706" y="100" width="11" height="11" rx="2.5" fill="#e6ebf0"><title>2026-09-11: 0 commits</title></rect><rect x="706" y="114" width="11" height="11" rx="2.5" fill="#e6ebf0"><title>2026-09-12: 0 commits</title></rect><rect x="720" y="30" width="11" height="11" rx="2.5" fill="#e6ebf0"><title>2026-09-13: 0 commits</title></rect><rect x="720" y="44" width="11" height="11" rx="2.5" fill="#e6ebf0"><title>2026-09-14: 0 commits</title></rect><rect x="720" y="58" width="11" height="11" rx="2.5" fill="#e6ebf0"><title>2026-09-15: 0 commits</title></rect><rect x="720" y="72" width="11" height="11" rx="2.5" fill="#e6ebf0"><title>2026-09-16: 0 commits</title></rect><rect x="720" y="86" width="11" height="11" rx="2.5" fill="#e6ebf0"><title>2026-09-17: 0 commits</title></rect><rect x="720" y="100" width="11" height="11" rx="2.5" fill="#e6ebf0"><title>2026-09-18: 0 commits</title></rect><rect x="720" y="114" width="11" height="11" rx="2.5" fill="#e6ebf0"><title>2026-09-19: 0 commits</title></rect><rect x="734" y="30" width="11" height="11" rx="2.5" fill="#e6ebf0"><title>2026-09-20: 0 commits</title></rect><rect x="734" y="44" width="11" height="11" rx="2.5" fill="#e6ebf0"><title>2026-09-21: 0 commits</title></rect><rect x="734" y="58" width="11" height="11" rx="2.5" fill="#e6ebf0"><title>2026-09-22: 0 commits</title></rect><rect x="734" y="72" width="11" height="11" rx="2.5" fill="#e6ebf0"><title>2026-09-23: 0 commits</title></rect><rect x="734" y="86" width="11" height="11" rx="2.5" fill="#e6ebf0"><title>2026-09-24: 0 commits</title></rect><rect x="734" y="100" width="11" height="11" rx="2.5" fill="#e6ebf0"><title>2026-09-25: 0 commits</title></rect><rect x="734" y="114" width="11" height="11" rx="2.5" fill="#4ac26b"><title>2026-09-26: 5 commits</title></rect><rect x="748" y="30" width="11" height="11" rx="2.5" fill="#e6ebf0"><title>2026-09-27: 0 commits</title></rect><rect x="748" y="44" width="11" height="11" rx="2.5" fill="#e6ebf0"><title>2026-09-28: 0 commits</title></rect><rect x="748" y="58" width="11" height="11" rx="2.5" fill="#e6ebf0"><title>2026-09-29: 0 commits</title></rect><rect x="748" y="72" width="11" height="11" rx="2.5" fill="#e6ebf0"><title>2026-09-30: 0 commits</title></rect><rect x="748" y="86" width="11" height="11" rx="2.5" fill="#e6ebf0"><title>2026-10-01: 0 commits</title></rect><rect x="748" y="100" width="11" height="11" rx="2.5" fill="#e6ebf0"><title>2026-10-02: 0 commits</title></rect><rect x="748" y="114" width="11" height="11" rx="2.5" fill="#e6ebf0"><title>2026-10-03: 0 commits</title></rect><rect x="762" y="30" width="11" height="11" rx="2.5" fill="#e6ebf0"><title>2026-10-04: 0 commits</title></rect><rect x="762" y="44" width="11" height="11" rx="2.5" fill="#e6ebf0"><title>2026-10-05: 0 commits</title></rect><rect x="762" y="58" width="11" height="11" rx="2.5" fill="#e6ebf0"><title>2026-10-06: 0 commits</title></rect><rect x="762" y="72" width="11" height="11" rx="2.5" fill="#e6ebf0"><title>2026-10-07: 0 commits</title></rect>
<text x="657" y="150" text-anchor="end" font-size="13" class="muted">Less</text><rect x="663" y="140" width="11" height="11" rx="2.5" fill="#e6ebf0"/><rect x="677" y="140" width="11" height="11" rx="2.5" fill="#aceebb"/><rect x="691" y="140" width="11" height="11" rx="2.5" fill="#4ac26b"/><rect x="705" y="140" width="11" height="11" rx="2.5" fill="#2da44e"/><rect x="719" y="140" width="11" height="11" rx="2.5" fill="#116329"/><text x="773" y="150" text-anchor="end" font-size="13" class="muted">More</text>
</svg>
