<svg xmlns="http://www.w3.org/2000/svg" width="560" height="366" viewBox="0 0 560 366" role="img" aria-label="Language mix of authored code: TypeScript 35%, C# 25%, Razor 21%, CSS 8%">
<title>Language mix of authored code: TypeScript 35%, C# 25%, Razor 21%, CSS 8%</title>
<style>
  text{font-family:-apple-system, BlinkMacSystemFont, 'Segoe UI', 'Noto Sans', Helvetica, Arial, sans-serif;fill:#f0f6fc}
  .mono{font-family:ui-monospace, SFMono-Regular, 'SF Mono', Menlo, Consolas, monospace}
  .muted{fill:#9198a1}
</style>
<defs><clipPath id="r"><rect x="4" y="8" width="552" height="18" rx="9"/></clipPath></defs>
<g clip-path="url(#r)"><rect x="4.00" y="8" width="194.42" height="18" fill="#3178c6"/><rect x="198.42" y="8" width="137.55" height="18" fill="#178600"/><rect x="335.97" y="8" width="117.45" height="18" fill="#7e57c2"/><rect x="453.42" y="8" width="45.60" height="18" fill="#a371f7"/><rect x="499.02" y="8" width="34.15" height="18" fill="#3572a5"/><rect x="533.16" y="8" width="11.61" height="18" fill="#e34c26"/><rect x="544.77" y="8" width="5.80" height="18" fill="#d4b500"/><rect x="550.57" y="8" width="4.97" height="18" fill="#e38c00"/><rect x="555.54" y="8" width="1.00" height="18" fill="#198ce7"/></g>
<circle cx="12" cy="66" r="7" fill="#3178c6"/>
<text x="28" y="72" font-size="19" font-weight="500">TypeScript</text>
<rect x="128" y="58" width="330" height="16" rx="8" fill="#262c36"/>
<rect x="128" y="58" width="330.0" height="16" rx="8" fill="#3178c6"/>
<text x="556" y="72" text-anchor="end" font-size="19" class="mono">35.2%</text>
<circle cx="12" cy="100" r="7" fill="#178600"/>
<text x="28" y="106" font-size="19" font-weight="500">C#</text>
<rect x="128" y="92" width="330" height="16" rx="8" fill="#262c36"/>
<rect x="128" y="92" width="233.5" height="16" rx="8" fill="#178600"/>
<text x="556" y="106" text-anchor="end" font-size="19" class="mono">24.9%</text>
<circle cx="12" cy="134" r="7" fill="#7e57c2"/>
<text x="28" y="140" font-size="19" font-weight="500">Razor</text>
<rect x="128" y="126" width="330" height="16" rx="8" fill="#262c36"/>
<rect x="128" y="126" width="199.4" height="16" rx="8" fill="#7e57c2"/>
<text x="556" y="140" text-anchor="end" font-size="19" class="mono">21.3%</text>
<circle cx="12" cy="168" r="7" fill="#a371f7"/>
<text x="28" y="174" font-size="19" font-weight="500">CSS</text>
<rect x="128" y="160" width="330" height="16" rx="8" fill="#262c36"/>
<rect x="128" y="160" width="77.4" height="16" rx="8" fill="#a371f7"/>
<text x="556" y="174" text-anchor="end" font-size="19" class="mono">8.3%</text>
<circle cx="12" cy="202" r="7" fill="#3572a5"/>
<text x="28" y="208" font-size="19" font-weight="500">Python</text>
<rect x="128" y="194" width="330" height="16" rx="8" fill="#262c36"/>
<rect x="128" y="194" width="58.0" height="16" rx="8" fill="#3572a5"/>
<text x="556" y="208" text-anchor="end" font-size="19" class="mono">6.2%</text>
<circle cx="12" cy="236" r="7" fill="#e34c26"/>
<text x="28" y="242" font-size="19" font-weight="500">HTML</text>
<rect x="128" y="228" width="330" height="16" rx="8" fill="#262c36"/>
<rect x="128" y="228" width="19.7" height="16" rx="8" fill="#e34c26"/>
<text x="556" y="242" text-anchor="end" font-size="19" class="mono">2.1%</text>
<circle cx="12" cy="270" r="7" fill="#d4b500"/>
<text x="28" y="276" font-size="19" font-weight="500">JavaScript</text>
<rect x="128" y="262" width="330" height="16" rx="8" fill="#262c36"/>
<rect x="128" y="262" width="9.8" height="16" rx="8" fill="#d4b500"/>
<text x="556" y="276" text-anchor="end" font-size="19" class="mono">1.1%</text>
<circle cx="12" cy="304" r="7" fill="#e38c00"/>
<text x="28" y="310" font-size="19" font-weight="500">SQL</text>
<rect x="128" y="296" width="330" height="16" rx="8" fill="#262c36"/>
<rect x="128" y="296" width="8.4" height="16" rx="8" fill="#e38c00"/>
<text x="556" y="310" text-anchor="end" font-size="19" class="mono">0.9%</text>
<circle cx="12" cy="338" r="7" fill="#198ce7"/>
<text x="28" y="344" font-size="19" font-weight="500">R</text>
<rect x="128" y="330" width="330" height="16" rx="8" fill="#262c36"/>
<rect x="128" y="330" width="4.0" height="16" rx="8" fill="#198ce7"/>
<text x="556" y="344" text-anchor="end" font-size="19" class="mono">&lt;0.1%</text>
</svg>
